 <svg  version="1.0" xmlns="http://www.w3.org/2000/svg"  width="192.000000pt" height="192.000000pt" viewBox="0 0 192.000000 192.000000"  preserveAspectRatio="xMidYMid meet">  <g transform="translate(0.000000,192.000000) scale(0.100000,-0.100000)" fill="#31a075" stroke="none"> <path d="M270 1191 l0 -431 60 0 60 0 0 160 0 160 188 0 c244 1 281 10 336 84 18 24 21 45 24 168 4 148 -3 182 -42 227 -45 51 -71 55 -358 59 l-268 4 0 -431z m565 372 c23 -11 42 -31 56 -60 19 -39 21 -57 17 -171 -6 -206 -19 -215 -315 -220 -175 -3 -203 -6 -217 -21 -12 -13 -16 -47 -18 -151 l-3 -135 -25 0 -25 0 -3 375 c-1 206 0 381 3 387 3 10 62 13 249 13 209 0 250 -2 281 -17z"/> <path d="M382 1507 c-20 -22 -22 -33 -22 -160 0 -187 -13 -177 220 -177 256 0 270 9 270 175 0 174 -16 185 -271 185 -171 0 -176 -1 -197 -23z m417 -31 c19 -17 21 -30 21 -127 0 -104 -1 -108 -26 -128 -25 -20 -40 -21 -215 -21 l-189 0 0 151 0 150 194 -3 c174 -3 196 -5 215 -22z"/> <path d="M1085 1613 c-38 -10 -75 -44 -86 -81 -6 -22 -9 -96 -7 -185 l3 -149 37 -34 38 -34 230 0 230 0 0 -125 0 -125 -215 0 -215 0 0 55 0 55 -60 0 -60 0 0 -67 c0 -79 13 -109 59 -140 33 -22 41 -23 273 -23 265 0 282 3 318 63 17 28 20 51 20 183 0 141 -2 153 -23 185 -36 54 -72 61 -310 57 l-207 -3 0 128 0 127 210 0 210 0 0 -55 0 -55 60 0 60 0 0 69 c0 82 -26 129 -80 148 -35 12 -441 17 -485 6z m498 -53 c44 -35 50 -140 8 -140 -20 0 -31 18 -31 50 0 11 -10 28 -22 40 -20 19 -34 20 -219 20 -250 0 -239 7 -239 -156 0 -167 -15 -158 264 -164 291 -6 271 9 271 -204 0 -223 4 -220 -326 -214 -213 4 -219 4 -243 27 -46 43 -48 146 -3 139 16 -2 23 -12 28 -40 11 -69 8 -68 240 -68 263 0 249 -8 249 152 0 165 11 158 -252 158 -240 0 -260 5 -277 68 -6 20 -11 88 -11 150 0 119 13 171 47 191 11 6 105 11 254 11 223 0 238 -1 262 -20z"/> </g> </svg> 